<?xml version="1.0" standalone="no"?>
<!DOCTYPE svg PUBLIC "-//W3C//DTD SVG 20010904//EN"
 "http://www.w3.org/TR/2001/REC-SVG-20010904/DTD/svg10.dtd">
<svg version="1.0" xmlns="http://www.w3.org/2000/svg"
 width="940.000000pt" height="1280.000000pt" viewBox="0 0 940.000000 1280.000000"
 preserveAspectRatio="xMidYMid meet">
<metadata>
Created by potrace 1.15, written by Peter Selinger 2001-2017
</metadata>
<g transform="translate(0.000000,1280.000000) scale(0.100000,-0.100000)"
fill="#000000" stroke="none">
<path d="M7795 12679 c-48 -14 -87 -18 -123 -14 -52 5 -57 3 -141 -50 -131
-83 -197 -145 -213 -203 -13 -42 -146 -242 -180 -269 -16 -13 -200 -73 -335
-109 -67 -18 -130 -28 -199 -30 -117 -4 -125 -6 -264 -84 -58 -32 -166 -81
-240 -109 -74 -27 -166 -63 -205 -79 l-70 -29 -101 -179 c-55 -98 -168 -279
-251 -401 l-151 -222 -7 -123 c-5 -85 -12 -132 -24 -151 -16 -29 -96 -72 -151
-84 -17 -3 -29 -11 -26 -17 24 -57 28 -86 16 -117 -19 -46 -65 -62 -177 -61
l-93 0 -19 -32 c-11 -17 -26 -54 -32 -81 -17 -65 -31 -81 -93 -101 -85 -28
-114 -65 -186 -238 -43 -104 -140 -299 -187 -378 -15 -26 -83 -107 -150 -181
-114 -125 -127 -144 -178 -254 -38 -79 -70 -133 -100 -163 -40 -42 -44 -50
-54 -125 -16 -122 -27 -150 -84 -212 -29 -32 -66 -78 -82 -102 -16 -24 -44
-50 -62 -59 -25 -12 -34 -24 -39 -51 -25 -154 -136 -318 -307 -457 l-85 -69
-22 -95 c-12 -52 -34 -131 -48 -175 l-26 -80 -192 -190 c-189 -187 -193 -192
-278 -337 -124 -212 -136 -239 -136 -324 0 -94 -13 -158 -50 -251 -48 -119
-54 -157 -34 -220 l17 -53 -37 -59 c-55 -90 -56 -112 -8 -159 37 -36 41 -45
47 -107 8 -72 1 -219 -15 -321 -20 -124 -139 -516 -184 -604 -39 -77 -86 -225
-86 -273 0 -14 5 -17 20 -13 11 3 29 9 40 12 36 10 21 -13 -47 -75 l-67 -61
-1 -99 c0 -115 16 -150 76 -164 19 -5 50 -13 70 -18 20 -5 76 -41 125 -80 49
-39 108 -84 131 -100 51 -35 55 -48 58 -169 2 -117 28 -202 79 -261 35 -42 35
-43 30 -113 -8 -91 5 -139 61 -220 117 -171 170 -338 131 -414 -12 -24 -11
-36 14 -108 49 -147 103 -226 218 -322 29 -24 86 -85 127 -135 83 -104 103
-120 202 -170 74 -38 217 -125 323 -199 36 -25 83 -51 105 -58 62 -20 174 -78
241 -126 135 -96 221 -233 249 -397 4 -27 18 -49 46 -74 22 -20 51 -58 65 -85
46 -90 141 -433 159 -571 l6 -47 -60 -59 c-80 -76 -80 -91 0 -177 l61 -65 -7
-108 -7 -108 32 -7 c49 -9 70 -7 70 7 0 36 24 89 46 104 46 29 98 18 206 -43
97 -56 177 -79 192 -56 3 5 -1 29 -9 52 -19 53 -19 143 -1 178 8 15 32 42 55
60 47 37 136 177 145 227 5 23 0 57 -13 99 -37 120 -43 179 -31 299 6 62 15
176 19 254 9 135 8 144 -12 185 -18 34 -22 61 -22 128 1 84 1 86 74 245 41 88
127 285 192 437 111 262 121 282 179 348 l63 70 -22 49 c-35 81 -27 91 162
200 185 108 374 230 399 257 9 11 33 51 52 89 20 39 46 82 58 97 23 30 23 29
-22 108 -27 46 -14 64 80 114 104 55 151 108 218 245 31 64 94 175 141 246 84
130 173 296 185 347 9 41 51 83 104 106 l49 21 -5 144 c-6 191 0 228 47 281
20 22 50 69 65 104 30 68 77 154 120 218 32 50 85 194 133 364 28 101 36 153
43 270 9 152 17 186 79 329 19 42 30 80 26 91 -17 52 -6 119 31 202 29 65 39
102 45 168 5 55 20 122 44 190 19 58 42 134 51 170 8 36 24 91 35 123 31 93
66 237 95 401 21 114 32 154 46 164 64 46 62 162 -3 225 -33 32 -33 32 -18
112 18 97 38 126 111 165 64 34 72 56 58 154 -19 123 -5 154 103 238 221 170
317 318 317 491 0 80 21 154 48 171 6 4 14 28 18 54 8 58 20 82 40 82 8 0 13
4 10 9 -3 4 1 17 9 27 8 10 15 28 15 38 0 11 17 40 38 65 53 63 62 83 62 136
0 65 23 105 60 105 16 0 36 8 46 17 36 36 -3 273 -80 489 -20 56 -41 138 -47
184 -6 52 -20 101 -36 134 -24 47 -25 57 -20 146 4 52 13 122 22 155 37 142
139 299 280 434 122 115 212 163 268 142 31 -12 37 4 37 102 0 58 -2 67 -18
67 -10 0 -23 -5 -30 -12 -19 -19 -56 24 -107 123 l-45 87 0 140 0 140 -52 -14
c-145 -38 -377 -42 -502 -9 -114 30 -182 71 -289 174 -248 239 -233 222 -241
271 l-7 46 -107 54 c-59 30 -109 55 -112 56 -3 1 -36 -7 -75 -17z"/>
<path d="M9310 11027 c0 -8 -8 -18 -17 -22 -16 -6 -15 -8 7 -20 14 -7 41 -13
61 -12 l36 1 -17 30 c-18 34 -70 50 -70 23z"/>
<path d="M523 6718 c-32 -35 -21 -80 29 -114 22 -15 45 -36 53 -46 9 -14 19
-17 39 -12 25 6 26 10 26 69 0 61 -1 65 -37 94 -44 37 -82 39 -110 9z"/>
<path d="M335 6606 c-20 -16 -26 -28 -22 -40 4 -10 0 -27 -8 -39 -9 -12 -15
-43 -15 -73 0 -47 -3 -55 -38 -86 -22 -20 -55 -38 -74 -42 -30 -5 -35 -10 -31
-26 5 -17 14 -20 59 -20 50 0 57 3 98 43 33 31 44 48 40 63 -3 12 1 26 10 33
12 10 16 31 16 77 0 58 2 65 25 77 l26 13 -29 21 -29 21 -28 -22z"/>
<path d="M610 6424 c-36 -31 -79 -63 -96 -71 -29 -14 -32 -20 -37 -80 -4 -36
-12 -72 -18 -80 -10 -11 -8 -18 9 -36 20 -19 23 -20 34 -5 7 8 23 18 36 21 19
5 22 1 22 -29 l0 -34 54 0 55 0 37 70 c31 57 45 72 76 85 56 22 110 20 126 -5
12 -20 13 -20 37 7 l24 28 -57 58 c-45 46 -69 61 -112 74 -30 9 -66 24 -79 34
-13 11 -29 19 -35 19 -6 0 -40 -25 -76 -56z"/>
<path d="M2171 6138 l-63 -93 12 -90 c11 -82 29 -125 52 -125 4 0 8 50 8 112
l0 111 46 67 c40 58 44 71 35 89 -7 11 -15 21 -19 21 -4 0 -36 -42 -71 -92z"/>
<path d="M306 6135 c-20 -31 -20 -38 3 -59 18 -16 20 -16 40 9 20 26 20 28 3
51 -22 30 -26 30 -46 -1z"/>
<path d="M273 5580 c-31 -38 -30 -70 0 -70 22 0 44 17 60 46 4 6 -4 20 -16 31
l-22 21 -22 -28z"/>
<path d="M60 5000 c-6 -12 -22 -25 -36 -30 -16 -6 -24 -17 -24 -33 0 -32 18
-47 56 -47 59 0 87 82 39 114 -23 15 -25 15 -35 -4z"/>
<path d="M7206 3008 c-9 -12 -16 -41 -16 -64 0 -53 33 -84 90 -84 l38 0 4 63
c6 81 -9 107 -63 107 -28 0 -42 -6 -53 -22z"/>
<path d="M3328 1592 c-16 -9 -28 -26 -28 -36 0 -11 -12 -30 -27 -42 l-27 -21
39 -7 c26 -5 41 -4 43 3 2 7 26 23 53 36 34 18 49 31 49 45 0 12 -6 22 -12 24
-44 14 -66 13 -90 -2z"/>
<path d="M7387 728 l-47 -21 25 -23 c19 -18 25 -33 25 -66 l0 -43 79 -48 c69
-41 145 -67 197 -67 9 0 14 11 14 29 0 23 -13 42 -60 87 -33 31 -60 60 -60 64
0 4 12 13 28 20 l27 13 -30 12 c-17 8 -30 21 -30 31 0 36 -95 43 -168 12z"/>
</g>
</svg>
